<?xml version="1.0" standalone="no"?>
<!DOCTYPE svg PUBLIC "-//W3C//DTD SVG 20010904//EN"
 "http://www.w3.org/TR/2001/REC-SVG-20010904/DTD/svg10.dtd">
<svg version="1.0" xmlns="http://www.w3.org/2000/svg"
 width="150.000000pt" height="97.000000pt" viewBox="0 0 150.000000 97.000000"
 preserveAspectRatio="xMidYMid meet">

<g transform="translate(0.000000,97.000000) scale(0.100000,-0.100000)"
fill="#000000" stroke="none">
<path d="M709 913 l-34 -38 37 34 38 35 27 -25 28 -24 -24 28 c-14 15 -27 27
-31 27 -3 0 -22 -17 -41 -37z"/>
<path d="M644 864 c-18 -14 -18 -15 4 -4 12 6 22 13 22 15 0 8 -5 6 -26 -11z"/>
<path d="M840 876 c0 -3 9 -10 20 -16 11 -6 20 -8 20 -6 0 3 -9 10 -20 16 -11
6 -20 8 -20 6z"/>
<path d="M678 803 c45 -2 119 -2 165 0 45 1 8 3 -83 3 -91 0 -128 -2 -82 -3z"/>
<path d="M1050 770 c8 -5 20 -10 25 -10 6 0 3 5 -5 10 -8 5 -19 10 -25 10 -5
0 -3 -5 5 -10z"/>
<path d="M633 763 c71 -2 183 -2 250 0 67 1 10 3 -128 3 -137 0 -192 -2 -122
-3z"/>
<path d="M380 740 c-8 -5 -10 -10 -5 -10 6 0 17 5 25 10 8 5 11 10 5 10 -5 0
-17 -5 -25 -10z"/>
<path d="M597 733 c90 -2 236 -2 326 0 89 1 16 3 -163 3 -179 0 -252 -2 -163
-3z"/>
<path d="M290 700 c-8 -5 -10 -10 -5 -10 6 0 17 5 25 10 8 5 11 10 5 10 -5 0
-17 -5 -25 -10z"/>
<path d="M480 700 l-135 -5 138 -5 c75 -3 137 -2 137 3 0 13 63 -23 98 -56
l32 -31 32 31 c24 24 27 31 13 30 -10 -1 -20 4 -22 11 -3 8 6 12 27 12 20 0
29 -4 25 -11 -4 -6 3 -5 14 3 21 13 21 13 -6 15 -77 6 -232 7 -353 3z m256
-19 c-3 -5 2 -8 12 -7 12 1 17 -6 17 -23 0 -31 -25 -40 -32 -12 -3 12 -11 21
-18 21 -7 0 -18 7 -25 15 -11 13 -8 15 19 15 18 0 30 -4 27 -9z"/>
<path d="M874 702 c10 -17 -39 -107 -72 -130 -42 -31 -88 -23 -129 21 l-33 37
-215 0 c-117 0 -216 -3 -218 -7 -3 -5 93 -7 212 -5 186 2 220 0 231 -13 11
-13 -15 -15 -251 -17 l-264 -3 274 -5 c169 -3 276 -9 278 -15 2 -7 -97 -9
-289 -7 -190 2 -295 -1 -302 -8 -7 -7 92 -10 316 -10 207 0 329 -4 333 -10 4
-7 -113 -11 -342 -12 -317 -2 -326 -3 -95 -5 196 -3 253 -6 249 -16 -3 -9 -67
-12 -257 -14 -139 -1 -255 -4 -258 -8 -3 -3 110 -5 252 -5 169 0 255 -3 251
-10 -4 -6 -104 -11 -258 -12 l-252 -3 248 -2 c192 -3 248 -6 244 -16 -3 -9
-66 -13 -243 -17 l-239 -6 233 -2 c152 -1 231 -5 227 -12 -4 -6 -93 -11 -228
-12 l-222 -3 218 -2 c168 -3 218 -6 214 -16 -3 -9 -54 -12 -204 -12 -111 0
-199 -3 -196 -7 2 -5 94 -8 203 -8 l198 0 44 85 43 85 88 0 c86 0 87 0 87 -25
0 -14 -4 -25 -10 -25 -5 0 -10 -10 -10 -22 0 -19 2 -20 10 -8 7 12 10 8 10
-15 0 -20 -3 -26 -9 -17 -10 17 -21 -6 -21 -47 0 -15 -5 -32 -11 -38 -8 -8 -8
-17 0 -31 16 -30 14 -32 -21 -21 -18 5 -44 9 -58 8 -14 0 2 -6 35 -14 33 -7
66 -10 73 -8 8 3 12 -4 12 -22 0 -23 -3 -25 -22 -20 -21 7 -22 6 -5 -6 15 -12
-22 -14 -245 -14 l-263 0 -3 -82 -3 -82 98 -3 c180 -7 918 -8 951 -2 l33 7 -3
81 -3 81 -261 0 -260 0 -2 40 c-2 27 1 35 7 26 7 -10 16 -11 42 -3 19 6 45 13
59 15 25 4 25 4 -2 6 -15 0 -39 -4 -54 -9 -30 -12 -44 -6 -26 12 15 15 16 64
2 73 -5 3 -10 35 -10 71 l0 64 63 0 62 0 45 -97 c25 -53 46 -100 48 -104 2 -5
-9 -10 -25 -10 -26 -2 -25 -2 7 -8 19 -4 36 -6 38 -6 1 1 -23 54 -53 118 l-56
117 -69 0 -69 0 -4 -62 -3 -63 -2 73 -2 72 85 0 85 0 74 -149 c41 -82 72 -151
69 -155 -4 -3 -1 -6 6 -6 7 0 9 9 5 25 l-6 24 123 4 124 3 -132 2 c-189 3
-173 21 20 24 l152 2 -150 3 c-82 2 -157 7 -165 11 -8 4 66 9 165 12 l180 6
-182 2 c-114 1 -183 6 -183 12 0 6 70 10 189 10 105 0 192 3 194 8 3 4 -85 7
-196 7 -150 0 -201 3 -204 12 -4 10 46 13 214 16 l218 2 -222 3 c-135 1 -224
6 -228 12 -4 7 76 11 232 12 l238 3 -234 2 c-167 3 -239 7 -249 16 -12 10 35
13 234 17 l249 6 -252 2 c-161 1 -253 6 -253 12 0 6 92 11 253 12 l252 2 -259
6 c-193 4 -260 8 -263 17 -4 10 53 13 249 16 235 2 229 3 -90 5 -226 1 -341 5
-337 12 4 6 124 10 328 10 223 0 318 3 311 10 -7 7 -109 10 -302 8 -249 -3
-306 0 -289 14 1 1 128 5 282 8 l280 6 -263 2 c-206 2 -263 5 -259 15 3 9 59
12 234 12 127 0 229 3 226 8 -2 4 -103 7 -224 7 -139 0 -219 4 -219 10 0 6 72
11 193 12 l192 3 -188 2 c-144 3 -188 6 -184 16 2 8 47 14 148 17 l144 6 -130
2 c-71 1 -141 5 -154 9 -17 4 -22 3 -17 -5z m-124 -387 c0 -30 -4 -55 -10 -55
-5 0 -10 25 -10 55 0 30 5 55 10 55 6 0 10 -25 10 -55z m17 -37 c-2 -13 -4 -3
-4 22 0 25 2 35 4 23 2 -13 2 -33 0 -45z m20 10 c-3 -7 -5 -2 -5 12 0 14 2 19
5 13 2 -7 2 -19 0 -25z m-512 -158 c-27 -12 -35 -12 -35 0 0 6 12 10 28 9 24
0 25 -1 7 -9z m215 -5 c17 -9 30 -20 30 -25 0 -7 -6 -7 -17 -1 -10 5 -26 12
-35 15 -10 3 -18 10 -18 16 0 13 6 13 40 -5z m54 -27 c6 -26 9 -27 60 -25 30
1 52 5 49 10 -2 4 1 7 6 7 6 0 11 -9 11 -20 0 -18 -6 -20 -57 -19 -32 1 -64 6
-71 12 -9 7 -16 7 -24 -1 -7 -7 -26 -12 -42 -11 l-31 1 30 10 c40 14 56 28 54
47 -4 45 4 39 15 -11z m200 1 c4 6 5 15 1 20 -3 5 -1 12 4 15 17 11 20 -10 7
-47 -15 -46 -21 -51 -42 -43 -16 6 -16 7 1 20 16 12 16 14 -14 35 -17 12 -28
27 -25 33 4 5 18 -2 34 -17 18 -17 30 -23 34 -16z m66 -7 c0 -28 -3 -33 -10
-22 -13 20 -13 73 0 65 6 -3 10 -23 10 -43z m362 21 l28 -27 0 27 c0 25 9 34
22 22 3 -3 0 -25 -7 -48 -9 -30 -18 -43 -34 -45 -25 -4 -28 13 -4 27 15 8 14
12 -15 28 -17 10 -32 24 -32 31 0 18 11 15 42 -15z m97 -30 c1 -13 -3 -23 -9
-23 -5 0 -10 19 -9 43 0 32 2 37 9 22 5 -11 9 -30 9 -42z m-365 27 c-10 -4
-23 -5 -28 -2 -5 3 -1 9 10 12 10 4 23 5 28 2 5 -3 1 -9 -10 -12z m171 10 c3
-5 -1 -10 -10 -10 -9 0 -13 5 -10 10 3 6 8 10 10 10 2 0 7 -4 10 -10z m-785
-30 c0 -16 7 -20 30 -20 22 0 28 4 24 15 -4 8 -1 15 5 15 6 0 11 -7 11 -15 0
-18 21 -20 37 -4 15 15 43 4 43 -15 0 -10 -11 -14 -36 -13 -19 1 -38 -4 -42
-9 -10 -15 -41 -24 -47 -14 -3 5 3 11 12 13 12 3 8 5 -9 6 -15 0 -30 5 -33 11
-3 5 -18 10 -33 10 l-27 1 24 19 c30 25 41 25 41 0z m630 -5 c15 -18 5 -35
-21 -35 -20 0 -23 8 -13 34 8 20 18 20 34 1z m174 -2 c45 -21 37 -33 -22 -33
-26 0 -56 -7 -66 -15 -11 -8 -29 -15 -40 -14 -18 1 -17 2 6 13 21 9 25 15 17
23 -6 6 -8 16 -5 22 9 14 36 14 36 1 0 -5 12 -9 28 -9 23 2 24 2 4 6 -12 2
-20 9 -17 14 9 13 19 11 59 -8z"/>
<path d="M1241 686 c2 -2 15 -9 29 -15 24 -11 24 -11 6 3 -16 13 -49 24 -35
12z"/>
<path d="M440 660 l-185 -5 191 -5 c151 -4 190 -2 187 8 -3 6 -6 11 -7 10 0
-1 -84 -5 -186 -8z"/>
<path d="M65 558 l-40 -43 43 40 c39 36 47 45 39 45 -2 0 -21 -19 -42 -42z"/>
<path d="M1430 565 c19 -19 36 -35 39 -35 3 0 -10 16 -29 35 -19 19 -36 35
-39 35 -3 0 10 -16 29 -35z"/>
<path d="M541 370 c-28 -60 -51 -113 -51 -118 0 -5 15 -6 33 -3 31 5 31 5 6
10 l-26 6 48 103 48 104 66 -4 c36 -1 65 0 65 5 0 4 -31 7 -69 7 l-68 0 -52
-110z"/>
<path d="M1492 445 c0 -16 2 -22 5 -12 2 9 2 23 0 30 -3 6 -5 -1 -5 -18z"/>
<path d="M1466 363 c-6 -14 -5 -15 5 -6 7 7 10 15 7 18 -3 3 -9 -2 -12 -12z"/>
<path d="M40 336 c0 -2 8 -10 18 -17 15 -13 16 -12 3 4 -13 16 -21 21 -21 13z"/>
<path d="M290 310 l-185 -6 178 -2 c223 -3 234 -21 14 -24 l-152 -2 148 -3
c186 -4 197 -22 15 -25 l-133 -2 128 -3 c125 -4 127 -4 116 -24 -14 -28 -7
-32 32 -20 l34 11 -33 -5 -32 -5 30 60 c17 33 29 59 28 58 -2 -1 -86 -5 -188
-8z"/>
<path d="M1394 268 l-29 -33 33 29 c30 28 37 36 29 36 -2 0 -16 -15 -33 -32z"/>
<path d="M95 270 c10 -11 20 -20 23 -20 3 0 -3 9 -13 20 -10 11 -20 20 -23 20
-3 0 3 -9 13 -20z"/>
<path d="M568 263 c6 -2 18 -2 25 0 6 3 1 5 -13 5 -14 0 -19 -2 -12 -5z"/>
<path d="M918 263 c7 -3 16 -2 19 1 4 3 -2 6 -13 5 -11 0 -14 -3 -6 -6z"/>
<path d="M157 220 c19 -22 23 -40 26 -120 l3 -95 2 96 c2 93 1 96 -25 120
l-28 24 22 -25z"/>
<path d="M1331 216 c-20 -21 -21 -31 -18 -122 l3 -99 2 99 c2 87 5 103 24 123
12 13 19 23 16 23 -2 0 -14 -11 -27 -24z"/>
<path d="M503 213 c9 -2 23 -2 30 0 6 3 -1 5 -18 5 -16 0 -22 -2 -12 -5z"/>
<path d="M621 216 c2 -2 22 -6 44 -9 28 -5 34 -4 20 3 -19 8 -73 14 -64 6z"/>
<path d="M853 213 c9 -2 23 -2 30 0 6 3 -1 5 -18 5 -16 0 -22 -2 -12 -5z"/>
<path d="M961 216 c2 -2 27 -6 54 -9 34 -4 42 -3 25 3 -25 8 -87 13 -79 6z"/>
<path d="M785 200 c-13 -5 -14 -9 -5 -9 8 0 24 4 35 9 13 5 14 9 5 9 -8 0 -24
-4 -35 -9z"/>
</g>
</svg>
